<svg width="25" height="25" viewBox="0 0 25 25" fill="none" xmlns="http://www.w3.org/2000/svg">
<path d="M23.7468 10.2058L12.7968 0.295799C12.7038 0.20207 12.5932 0.127676 12.4714 0.0769069C12.3495 0.0261382 12.2188 0 12.0868 0C11.9548 0 11.8241 0.0261382 11.7022 0.0769069C11.5803 0.127676 11.4697 0.20207 11.3768 0.295799L0.426775 10.2058C0.242863 10.3345 0.10758 10.5212 0.0426962 10.7361C-0.0221881 10.951 -0.0129014 11.1814 0.0690615 11.3904C0.151024 11.5993 0.300898 11.7746 0.494566 11.8881C0.688235 12.0015 0.914435 12.0465 1.13677 12.0158H3.08678V23.0158C3.08678 23.281 3.19213 23.5354 3.37967 23.7229C3.5672 23.9104 3.82156 24.0158 4.08677 24.0158H20.0868C20.352 24.0158 20.6063 23.9104 20.7939 23.7229C20.9814 23.5354 21.0868 23.281 21.0868 23.0158V12.0158H23.0868C23.3045 12.0328 23.5219 11.978 23.7056 11.8598C23.8893 11.7417 24.0292 11.5666 24.104 11.3614C24.1789 11.1562 24.1844 10.9321 24.1199 10.7235C24.0554 10.5148 23.9244 10.333 23.7468 10.2058Z" fill="#5956E8"/>
<path d="M23.7468 10.2058L12.7968 0.295799C12.7038 0.20207 12.5932 0.127676 12.4714 0.0769069C12.3495 0.0261382 12.2188 0 12.0868 0C11.9548 0 11.8241 0.0261382 11.7022 0.0769069C11.5803 0.127676 11.4697 0.20207 11.3768 0.295799L0.426775 10.2058C0.242863 10.3345 0.10758 10.5212 0.0426962 10.7361C-0.0221881 10.951 -0.0129014 11.1814 0.0690615 11.3904C0.151024 11.5993 0.300898 11.7746 0.494566 11.8881C0.688235 12.0015 0.914435 12.0465 1.13677 12.0158H3.08678V23.0158C3.08678 23.281 3.19213 23.5354 3.37967 23.7229C3.5672 23.9104 3.82156 24.0158 4.08677 24.0158H20.0868C20.352 24.0158 20.6063 23.9104 20.7939 23.7229C20.9814 23.5354 21.0868 23.281 21.0868 23.0158V12.0158H23.0868C23.3045 12.0328 23.5219 11.978 23.7056 11.8598C23.8893 11.7417 24.0292 11.5666 24.104 11.3614C24.1789 11.1562 24.1844 10.9321 24.1199 10.7235C24.0554 10.5148 23.9244 10.333 23.7468 10.2058Z" fill="#5956E8"/>
<path d="M4.5787 13.224H8.1007V13.86H4.5787V13.224ZM3.9667 15.222H8.9947V15.858H3.9667V15.222ZM7.6207 13.224H8.4067V13.668C8.4067 14.148 8.4067 14.664 8.2387 15.384L7.4467 15.372C7.6207 14.652 7.6207 14.142 7.6207 13.668V13.224ZM4.5547 16.44H8.3827V18.474H4.5547V16.44ZM7.5967 17.058H5.3347V17.844H7.5967V17.058ZM9.48023 15.66H14.5022V16.29H9.48023V15.66ZM11.5862 15.006H12.3842V15.828H11.5862V15.006ZM11.9822 16.554C13.1882 16.554 13.9082 16.914 13.9082 17.544C13.9082 18.186 13.1882 18.534 11.9822 18.534C10.7762 18.534 10.0562 18.186 10.0562 17.544C10.0562 16.914 10.7762 16.554 11.9822 16.554ZM11.9822 17.154C11.2322 17.154 10.8602 17.274 10.8602 17.544C10.8602 17.82 11.2322 17.94 11.9822 17.94C12.7262 17.94 13.0982 17.82 13.0982 17.544C13.0982 17.274 12.7262 17.154 11.9822 17.154ZM10.1222 13.134H10.9082V13.602H13.0742V13.134H13.8662V15.24H10.1222V13.134ZM10.9082 14.202V14.616H13.0742V14.202H10.9082ZM15.2458 13.38H17.6218V14.022H15.2458V13.38ZM15.9298 14.676H16.7218V16.068H15.9298V14.676ZM17.3098 13.38H18.0958V13.728C18.0958 14.118 18.0958 14.67 17.9638 15.36L17.1898 15.276C17.3098 14.592 17.3098 14.112 17.3098 13.728V13.38ZM18.6358 12.978H19.4398V17.136H18.6358V12.978ZM19.1218 14.67H20.0998V15.324H19.1218V14.67ZM15.7318 17.802H19.6138V18.438H15.7318V17.802ZM15.7318 16.764H16.5298V18H15.7318V16.764ZM14.9938 16.392L14.9218 15.762C15.8818 15.762 17.2198 15.744 18.3358 15.588L18.3838 16.152C17.2378 16.368 15.9478 16.392 14.9938 16.392Z" fill="#F0F0F0"/>
</svg>
